<svg id="File_management" height="512" viewBox="0 0 64 64" width="512" xmlns="http://www.w3.org/2000/svg" data-name="File management"><path d="m61 6h-11.87l-3.4-3.68a.99.99 0 0 0 -.73-.32h-30a1 1 0 0 0 -1 1v27h-11a1 1 0 0 0 -1 1v30a1 1 0 0 0 1 1h58a1 1 0 0 0 1-1v-54a1 1 0 0 0 -1-1zm-15-.44 8.72 9.44h-8.72zm2.13 26.44-21.13 16.72-21.13-16.72zm-44.13 1.07 17.33 13.72-17.33 12.28zm2.14 26.93 16.82-11.92 3.42 2.7a.984.984 0 0 0 1.24 0l3.42-2.7 16.82 11.92zm43.86-.93-17.33-12.28 17.33-13.72zm1-29.07h-35v-26h28v12a1 1 0 0 0 1 1h11v39h-4v-25a1 1 0 0 0 -1-1zm9 30h-8v-2h5a1 1 0 0 0 1-1v-41a.977.977 0 0 0 -.27-.68l-6.75-7.32h9.02z"/><path d="m19 7h6v2h-6z"/><path d="m27 7h14v2h-14z"/><path d="m19 11h22v2h-22z"/><path d="m19 15h22v2h-22z"/></svg>